<?xml version="1.0" encoding="UTF-8" standalone="no"?>
<svg width="42px" height="42px" viewBox="0 0 42 42" version="1.1" xmlns="http://www.w3.org/2000/svg" xmlns:xlink="http://www.w3.org/1999/xlink">
    <!-- Generator: Sketch 49.1 (51147) - http://www.bohemiancoding.com/sketch -->
    <title>social-facebook-circular-button</title>
    <desc>Created with Sketch.</desc>
    <defs></defs>
    <g id="Page-1" stroke="none" stroke-width="1" fill="none" fill-rule="evenodd">
        <g id="Desktop-HD-Copy-3" transform="translate(-700.000000, -5935.000000)" fill="#4A4A4A" fill-rule="nonzero">
            <g id="social-facebook-circular-button" transform="translate(700.000000, 5935.000000)">
                <path d="M21,0 C9.40151953,0 0,9.40151953 0,21 C0,32.5984805 9.40151953,42 21,42 C32.5984805,42 42,32.5984805 42,21 C42,9.40151953 32.5984805,0 21,0 Z M21,38.71875 C11.213918,38.71875 3.28125,30.786082 3.28125,21 C3.28125,11.213918 11.213918,3.28125 21,3.28125 C30.786082,3.28125 38.71875,11.213918 38.71875,21 C38.71875,30.786082 30.786082,38.71875 21,38.71875 Z" id="Shape"></path>
                <path d="M25.9833984,17.7853594 L22.3304648,17.7853594 L22.3304648,15.1193438 C22.3304648,14.3015742 23.1763711,14.111918 23.5711875,14.111918 C23.9633789,14.111918 25.9309805,14.111918 25.9309805,14.111918 L25.9309805,10.5141094 L23.2264102,10.5 C19.5363984,10.5 18.6941836,13.182668 18.6941836,14.9027813 L18.6941836,17.7854414 L16.0166016,17.7854414 L16.0166016,21.4921875 L18.6941836,21.4921875 C18.6941836,26.2513125 18.6941836,31.5 18.6941836,31.5 L22.3304648,31.5 C22.3304648,31.5 22.3304648,26.197418 22.3304648,21.4921875 L25.4194336,21.4921875 L25.9833984,17.7853594 Z" id="Shape"></path>
            </g>
        </g>
    </g>
</svg>