<?xml version="1.0" encoding="UTF-8"?>
<svg width="36px" height="36px" viewBox="0 0 36 36" version="1.1" xmlns="http://www.w3.org/2000/svg" xmlns:xlink="http://www.w3.org/1999/xlink">
    <!-- Generator: Sketch 49.1 (51147) - http://www.bohemiancoding.com/sketch -->
    <title>Group 8</title>
    <desc>Created with Sketch.</desc>
    <defs></defs>
    <g id="Page-1" stroke="none" stroke-width="1" fill="none" fill-rule="evenodd">
        <g id="upteam" transform="translate(-548.000000, -1210.000000)">
            <g id="Group-8" transform="translate(549.000000, 1211.000000)">
                <g id="Group-2-Copy-4" stroke="#4A4A4A">
                    <g id="invision">
                        <g id="Group-5">
                            <circle id="Oval-6" cx="17" cy="17" r="17"></circle>
                        </g>
                    </g>
                </g>
                <g id="photoshop-cc" transform="translate(5.000000, 6.000000)"></g>
                <path d="M21.9825281,14.7388255 C20.9183207,14.7388255 20.55466,15.2749103 20.55466,15.7171897 C20.55466,16.1996715 20.7971005,16.5347447 22.2250229,17.2718951 C24.3399144,18.2905157 25,19.26888 25,20.7029784 C25,22.8473717 23.3565749,24 21.1338777,24 C19.961919,24 18.9515873,23.7587321 18.3723696,23.4237129 C18.2780871,23.3835106 18.2646182,23.3165067 18.2646182,23.2092465 L18.2646182,21.2390632 C18.2646182,21.1050555 18.3319628,21.0647992 18.4262995,21.1318571 C19.2749499,21.6813967 20.2448206,21.9226106 21.1338777,21.9226106 C22.1980851,21.9226106 22.6426137,21.4803311 22.6426137,20.8771884 C22.6426137,20.3947067 22.3327743,19.965828 20.9721964,19.26888 C19.0593386,18.3575196 18.2646182,17.4327584 18.2646182,15.8914538 C18.2646182,14.1624843 19.6251961,12.7284399 21.9825281,12.7284399 C23.1410179,12.7284399 23.9492615,12.9027039 24.3937901,13.1037155 C24.5015414,13.1707193 24.5284793,13.2779255 24.5284793,13.3717309 L24.5284793,15.2078524 C24.5284793,15.3150586 24.4611347,15.3821165 24.3263912,15.3418601 C23.7337046,14.9666926 22.8581163,14.7388255 21.9825281,14.7388255 Z M10.5530658,16.490814 C10.8629052,16.5176155 11.1054,16.5176155 11.644211,16.5176155 C13.2203459,16.5176155 14.7020897,15.9681299 14.7020897,13.8371374 C14.7020897,12.1350236 13.6378823,11.2772122 11.8462991,11.2772122 C11.3074881,11.2772122 10.7955606,11.3040137 10.5530658,11.3174145 L10.5530658,16.490814 Z M8.00005431,9.22786712 C8.00005431,9.13406173 8.18867346,9.06700385 8.29637048,9.06700385 C9.1585441,9.02680154 10.4382542,9 11.7718399,9 C15.5032187,9 16.9580246,11.0371871 16.9580246,13.6373147 C16.9580246,17.0415424 14.4794181,18.5024424 11.4350626,18.5024424 C10.9231895,18.5024424 10.7480936,18.4756409 10.3843242,18.4756409 L10.3843242,23.6222388 C10.3843242,23.7294449 10.3439174,23.783048 10.2226972,23.783048 L8.16168131,23.783048 C8.05392998,23.783048 8,23.7428457 8,23.6222388 L8,9.22786712 L8.00005431,9.22786712 Z" id="Shape" fill="#4A4A4A" fill-rule="nonzero"></path>
            </g>
        </g>
    </g>
</svg>