<?xml version="1.0" encoding="UTF-8"?>
<svg width="90px" height="36px" viewBox="0 0 90 36" version="1.1" xmlns="http://www.w3.org/2000/svg" xmlns:xlink="http://www.w3.org/1999/xlink">
    <!-- Generator: Sketch 49.1 (51147) - http://www.bohemiancoding.com/sketch -->
    <title>Group 10</title>
    <desc>Created with Sketch.</desc>
    <defs></defs>
    <g id="Page-1" stroke="none" stroke-width="1" fill="none" fill-rule="evenodd">
        <g id="infographic-copy" transform="translate(-332.000000, -1210.000000)">
            <g id="Group-10" transform="translate(333.000000, 1211.000000)">
                <g id="Group-6">
                    <g id="Group-2" stroke="#4A4A4A">
                        <g id="invision">
                            <g id="Group-5">
                                <circle id="Oval-6" cx="17" cy="17" r="17"></circle>
                            </g>
                        </g>
                    </g>
                    <path d="M24.8269603,9.70208352 L20.9801249,8 L13.0042774,8 L9.18090305,9.73371883 L6,13.2875053 L17,28 L28,13.2877647 L24.8269603,9.70221318 L24.8269603,9.70208352 Z M27.0833441,13.3829299 L23.6046664,16.0011409 L21.1309458,12.2729713 L24.631022,10.6162663 L27.0833441,13.3830595 L27.0833441,13.3829299 Z M22.3275872,16.4002126 L11.4686112,16.4002126 L13.6298618,12.539019 L20.1025277,12.554707 L22.3275872,16.4002126 Z M13.7166161,8.57617757 L20.3425521,8.57617757 L23.6046664,10.0231042 L20.3286302,11.458362 L13.7028231,11.458362 L10.459658,10.024271 L13.716745,8.57604792 L13.7166161,8.57617757 Z M9.36163032,10.6162663 L12.643983,12.2710265 L10.2934972,15.9274981 L6.90917933,13.3829299 L9.36150141,10.6161366 L9.36163032,10.6162663 Z M8.17053192,15.3106095 L10.309095,17.1243242 L15.3973023,25.5460592 L8.17040301,15.3106095 L8.17053192,15.3106095 Z M11.7652256,17.598076 L22.0758323,17.598076 L17,27.0069883 L11.7650967,17.598076 L11.7652256,17.598076 Z M18.5954789,25.5460592 L23.6836863,17.1243242 L25.8222493,15.3106095 L18.5954789,25.5460592 Z" id="Shape" fill="#4A4A4A" fill-rule="nonzero"></path>
                </g>
                <g id="Group" transform="translate(54.000000, 0.000000)">
                    <g id="Group-2-Copy-2" stroke="#4A4A4A">
                        <g id="invision">
                            <g id="Group-5">
                                <circle id="Oval-6" cx="17" cy="17" r="17"></circle>
                            </g>
                        </g>
                    </g>
                    <g id="adobe-illustrator-cc" transform="translate(7.000000, 9.000000)" fill="#4A4A4A" fill-rule="nonzero">
                        <path d="M14.2281424,4.36725323 C14.2281424,4.26107293 14.2712219,4.20792927 14.4005185,4.20792927 L16.6553055,4.20792927 C16.7701265,4.20792927 16.8276238,4.24774688 16.8276238,4.36725323 L16.8276238,14.8407296 C16.8276238,14.9468563 16.7989041,15 16.6553055,15 L14.4292382,15 C14.2856397,15 14.2425022,14.9336373 14.2425022,14.827457 L14.2425022,4.36725323 L14.2281424,4.36725323 Z M14.0701839,1.35395928 C14.0701839,0.504409907 14.7164354,4.8316906e-13 15.5351209,4.8316906e-13 C16.411188,4.8316906e-13 17,0.544227517 17,1.35395928 C17,2.23005373 16.3824683,2.70791857 15.5064012,2.70791857 C14.6733558,2.70797208 14.0701839,2.23005373 14.0701839,1.35395928 Z M7.60737991,8.73450645 C7.20530392,7.26104082 6.25743758,4.04865883 5.89832536,2.49555798 L5.86960564,2.49555798 C5.56799075,4.04865883 4.80686045,6.67694218 4.20368857,8.73450645 L7.60737991,8.73450645 Z M3.61481864,10.8849785 L2.48021626,14.8672746 C2.45149654,14.9734014 2.40841697,14.9999465 2.26481841,14.9999465 L0.153629969,14.9999465 C0.0100314024,14.9999465 -0.0187462135,14.9601289 0.0100314024,14.8008584 L4.08875181,1.60613748 C4.16055109,1.36723182 4.20363066,1.15481772 4.23235038,0.504409907 C4.23235038,0.411502151 4.27542995,0.371684542 4.34722923,0.371684542 L7.36320444,0.371684542 C7.46372344,0.371684542 7.50680301,0.398229615 7.53558062,0.504409907 L12.1025941,14.8274035 C12.1313138,14.9335303 12.1025941,14.9999465 11.9877152,14.9999465 L9.60363159,14.9999465 C9.48875273,14.9999465 9.41689555,14.9734014 9.38823374,14.8805472 L8.21055179,10.8849785 L3.61481864,10.8849785 Z" id="Shape"></path>
                    </g>
                </g>
            </g>
        </g>
    </g>
</svg>