<?xml version="1.0" encoding="UTF-8"?>
<svg width="90px" height="36px" viewBox="0 0 90 36" version="1.1" xmlns="http://www.w3.org/2000/svg" xmlns:xlink="http://www.w3.org/1999/xlink">
    <!-- Generator: Sketch 49.1 (51147) - http://www.bohemiancoding.com/sketch -->
    <title>Group 10</title>
    <desc>Created with Sketch.</desc>
    <defs></defs>
    <g id="Page-1" stroke="none" stroke-width="1" fill="none" fill-rule="evenodd">
        <g id="infographic" transform="translate(-331.000000, -1210.000000)">
            <g id="Group-10" transform="translate(332.000000, 1211.000000)">
                <g id="Group">
                    <g id="Group-2-Copy-2" stroke="#4A4A4A">
                        <g id="invision">
                            <g id="Group-5">
                                <circle id="Oval-6" cx="17" cy="17" r="17"></circle>
                            </g>
                        </g>
                    </g>
                    <g id="adobe-illustrator-cc" transform="translate(7.000000, 9.000000)" fill="#4A4A4A" fill-rule="nonzero">
                        <path d="M14.2281424,4.36725323 C14.2281424,4.26107293 14.2712219,4.20792927 14.4005185,4.20792927 L16.6553055,4.20792927 C16.7701265,4.20792927 16.8276238,4.24774688 16.8276238,4.36725323 L16.8276238,14.8407296 C16.8276238,14.9468563 16.7989041,15 16.6553055,15 L14.4292382,15 C14.2856397,15 14.2425022,14.9336373 14.2425022,14.827457 L14.2425022,4.36725323 L14.2281424,4.36725323 Z M14.0701839,1.35395928 C14.0701839,0.504409907 14.7164354,4.8316906e-13 15.5351209,4.8316906e-13 C16.411188,4.8316906e-13 17,0.544227517 17,1.35395928 C17,2.23005373 16.3824683,2.70791857 15.5064012,2.70791857 C14.6733558,2.70797208 14.0701839,2.23005373 14.0701839,1.35395928 Z M7.60737991,8.73450645 C7.20530392,7.26104082 6.25743758,4.04865883 5.89832536,2.49555798 L5.86960564,2.49555798 C5.56799075,4.04865883 4.80686045,6.67694218 4.20368857,8.73450645 L7.60737991,8.73450645 Z M3.61481864,10.8849785 L2.48021626,14.8672746 C2.45149654,14.9734014 2.40841697,14.9999465 2.26481841,14.9999465 L0.153629969,14.9999465 C0.0100314024,14.9999465 -0.0187462135,14.9601289 0.0100314024,14.8008584 L4.08875181,1.60613748 C4.16055109,1.36723182 4.20363066,1.15481772 4.23235038,0.504409907 C4.23235038,0.411502151 4.27542995,0.371684542 4.34722923,0.371684542 L7.36320444,0.371684542 C7.46372344,0.371684542 7.50680301,0.398229615 7.53558062,0.504409907 L12.1025941,14.8274035 C12.1313138,14.9335303 12.1025941,14.9999465 11.9877152,14.9999465 L9.60363159,14.9999465 C9.48875273,14.9999465 9.41689555,14.9734014 9.38823374,14.8805472 L8.21055179,10.8849785 L3.61481864,10.8849785 Z" id="Shape"></path>
                    </g>
                </g>
                <g id="Group-7" transform="translate(54.000000, 0.000000)">
                    <g id="Group-2-Copy">
                        <g id="invision">
                            <g id="Group-5">
                                <path d="M12.0240556,12.3430197 C12.9051752,12.3430197 13.643307,11.6194599 13.643307,10.6711302 C13.643307,9.72345128 12.9051752,9 12.0240556,9 C11.142936,9 10.4050113,9.72345128 10.4050113,10.6711302 C10.4050113,11.6193514 11.142936,12.3430197 12.0240556,12.3430197 M8.66668968,21.2947665 C8.57153704,21.7189223 8.52380542,22.1769237 8.52380542,22.5505278 C8.52380542,24.0227062 9.28575126,25 10.9050027,25 C12.2479076,25 13.3366236,24.1644892 14.1205198,22.8153268 L13.6418575,24.8279512 L16.3085127,24.8279512 L17.8326114,18.4234167 C18.2136361,16.8018618 18.9517679,15.9601676 20.071028,15.9601676 C20.952044,15.9601676 21.4996635,16.5342423 21.4996635,17.4819212 C21.4996635,17.7564834 21.4758495,18.055562 21.3805933,18.3800248 L20.5947298,21.3238391 C20.4756596,21.7479948 20.4282386,22.1723675 20.4282386,22.5712474 C20.4282386,23.9687917 21.2137914,24.9909962 22.8568569,24.9909962 C24.2617819,24.9909962 25.3808349,24.0434258 26,21.7730536 L24.9523892,21.3493318 C24.4284802,22.870326 23.9760134,23.1453222 23.6188027,23.1453222 C23.2615921,23.1453222 23.0710797,22.8960357 23.0710797,22.3973545 C23.0710797,22.1728014 23.1189149,21.9236235 23.19015,21.6235686 L23.9523029,18.7555816 C24.1427117,18.0821395 24.2142574,17.4849586 24.2142574,16.9362682 C24.2142574,14.7907562 22.9759271,13.6710285 21.4758495,13.6710285 C20.071028,13.6710285 18.6421854,14.9987118 17.9279711,16.3960391 L18.451673,13.8879879 L14.3800928,13.8879879 L13.8085558,16.097069 L15.7135757,16.097069 L14.5404752,21.0177093 C13.6192859,23.1632213 11.9271428,23.1980433 11.7147837,23.1482511 C11.3660633,23.0658065 11.1430396,22.9270609 11.1430396,22.4523537 C11.1430396,22.1784424 11.1906677,21.7849864 11.3097379,21.3106046 L13.0957911,13.8879879 L8.57153704,13.8879879 L8,16.097069 L9.88099881,16.097069 L8.66679321,21.2947665" id="Shape" fill="#4A4A4A" fill-rule="nonzero"></path>
                                <circle id="Oval-6" stroke="#4A4A4A" cx="17" cy="17" r="17"></circle>
                            </g>
                        </g>
                    </g>
                </g>
            </g>
        </g>
    </g>
</svg>