<?xml version="1.0" encoding="UTF-8" standalone="no"?>
<svg width="42px" height="42px" viewBox="0 0 42 42" version="1.1" xmlns="http://www.w3.org/2000/svg" xmlns:xlink="http://www.w3.org/1999/xlink">
    <!-- Generator: Sketch 49.1 (51147) - http://www.bohemiancoding.com/sketch -->
    <title>Page 1</title>
    <desc>Created with Sketch.</desc>
    <defs>
        <polygon id="path-1" points="0 0.01325 41.98675 0.01325 41.98675 42 0 42"></polygon>
    </defs>
    <g id="Page-1" stroke="none" stroke-width="1" fill="none" fill-rule="evenodd">
        <g id="Desktop-HD-Copy-3" transform="translate(-616.000000, -5935.000000)">
            <g id="Page-1" transform="translate(616.000000, 5935.000000)">
                <g id="Group-3">
                    <mask id="mask-2" fill="white">
                        <use xlink:href="#path-1"></use>
                    </mask>
                    <g id="Clip-2"></g>
                    <path d="M20.993375,0.01325 C15.291875,0.01325 14.5769583,0.0374166667 12.337875,0.139583333 C10.1032917,0.2415 8.57729167,0.596416667 7.241875,1.11533333 C5.861375,1.65183333 4.690625,2.36966667 3.52354167,3.53675 C2.35645833,4.70391667 1.638625,5.87466667 1.102125,7.25516667 C0.583125,8.5905 0.228291667,10.1165833 0.126291667,12.3510833 C0.024125,14.59025 -4.16666667e-05,15.3051667 -4.16666667e-05,21.0066667 C-4.16666667e-05,26.7080833 0.024125,27.423 0.126291667,29.6621667 C0.228291667,31.8966667 0.583125,33.42275 1.102125,34.7580833 C1.638625,36.1385833 2.35645833,37.3093333 3.52354167,38.4765 C4.690625,39.6435833 5.861375,40.3614167 7.241875,40.8979167 C8.57729167,41.4168333 10.1032917,41.77175 12.337875,41.8736667 C14.5769583,41.9758333 15.291875,42 20.993375,42 C26.694875,42 27.4097917,41.9758333 29.648875,41.8736667 C31.8834583,41.77175 33.4094583,41.4168333 34.744875,40.8979167 C36.125375,40.3614167 37.296125,39.6435833 38.4632083,38.4765 C39.6302917,37.3093333 40.348125,36.1385833 40.884625,34.7580833 C41.403625,33.42275 41.7584583,31.8966667 41.8604583,29.6621667 C41.962625,27.423 41.9867917,26.7080833 41.9867917,21.0066667 C41.9867917,15.3051667 41.962625,14.59025 41.8604583,12.3510833 C41.7584583,10.1165833 41.403625,8.5905 40.884625,7.25516667 C40.348125,5.87466667 39.6302917,4.70391667 38.4632083,3.53675 C37.296125,2.36966667 36.125375,1.65183333 34.744875,1.11533333 C33.4094583,0.596416667 31.8834583,0.2415 29.648875,0.139583333 C27.4097917,0.0374166667 26.694875,0.01325 20.993375,0.01325 M20.993375,3.79583333 C26.598875,3.79583333 27.2627917,3.81725 29.4764583,3.91825 C31.5232917,4.01158333 32.6349583,4.35358333 33.3747083,4.64108333 C34.3545417,5.02191667 35.053875,5.47683333 35.7885417,6.2115 C36.523125,6.94608333 36.978125,7.64541667 37.3589583,8.62533333 C37.646375,9.36508333 37.988375,10.4766667 38.0817917,12.5235 C38.1827917,14.7371667 38.204125,15.4011667 38.204125,21.0066667 C38.204125,26.6120833 38.1827917,27.2760833 38.0817917,29.48975 C37.988375,31.5365833 37.646375,32.6481667 37.3589583,33.3879167 C36.978125,34.3678333 36.523125,35.0671667 35.7885417,35.80175 C35.053875,36.5364167 34.3545417,36.9913333 33.3747083,37.3721667 C32.6349583,37.6596667 31.5232917,38.0016667 29.4764583,38.095 C27.263125,38.196 26.5992083,38.2174167 20.993375,38.2174167 C15.3875417,38.2174167 14.723625,38.196 12.5102917,38.095 C10.4634583,38.0016667 9.35179167,37.6596667 8.61204167,37.3721667 C7.63220833,36.9913333 6.932875,36.5364167 6.19820833,35.80175 C5.463625,35.0671667 5.008625,34.3678333 4.62779167,33.3879167 C4.340375,32.6481667 3.998375,31.5365833 3.90495833,29.48975 C3.80395833,27.2760833 3.782625,26.6120833 3.782625,21.0066667 C3.782625,15.4011667 3.80395833,14.7371667 3.90495833,12.5235 C3.998375,10.4766667 4.340375,9.36508333 4.62779167,8.62533333 C5.008625,7.64541667 5.463625,6.94608333 6.19820833,6.2115 C6.932875,5.47683333 7.63220833,5.02191667 8.61204167,4.64108333 C9.35179167,4.35358333 10.4634583,4.01158333 12.5102083,3.91825 C14.7239583,3.81725 15.387875,3.79583333 20.993375,3.79583333" id="Fill-1" fill="#4A4A4A" mask="url(#mask-2)"></path>
                </g>
                <path d="M21,27.9876205 C17.1408823,27.9876205 14.0123649,24.8591742 14.0123649,21.0000416 C14.0123649,17.1408258 17.1408823,14.0123795 21,14.0123795 C24.8591177,14.0123795 27.9875519,17.1408258 27.9875519,21.0000416 C27.9875519,24.8591742 24.8591177,27.9876205 21,27.9876205 M21,10.2352941 C15.0548435,10.2352941 10.2352941,15.0547789 10.2352941,21.0000416 C10.2352941,26.9452211 15.0548435,31.7647059 21,31.7647059 C26.9451565,31.7647059 31.7647059,26.9452211 31.7647059,21.0000416 C31.7647059,15.0547789 26.9451565,10.2352941 21,10.2352941" id="Fill-4" fill="#4A4A4A"></path>
                <path d="M34.5882353,9.88235294 C34.5882353,11.2468565 33.4820871,12.3529412 32.1176879,12.3529412 C30.753207,12.3529412 29.6470588,11.2468565 29.6470588,9.88235294 C29.6470588,8.51784943 30.753207,7.41176471 32.1176879,7.41176471 C33.4820871,7.41176471 34.5882353,8.51784943 34.5882353,9.88235294" id="Fill-6" fill="#4A4A4A"></path>
            </g>
        </g>
    </g>
</svg>