<?xml version="1.0" encoding="UTF-8" standalone="no"?>
<svg width="42px" height="42px" viewBox="0 0 42 42" version="1.1" xmlns="http://www.w3.org/2000/svg" xmlns:xlink="http://www.w3.org/1999/xlink">
    <!-- Generator: Sketch 49.1 (51147) - http://www.bohemiancoding.com/sketch -->
    <title>linkedin-button</title>
    <desc>Created with Sketch.</desc>
    <defs></defs>
    <g id="Page-1" stroke="none" stroke-width="1" fill="none" fill-rule="evenodd">
        <g id="Desktop-HD-Copy-3" transform="translate(-784.000000, -5935.000000)" fill="#4A4A4A" fill-rule="nonzero">
            <g id="linkedin-button" transform="translate(784.000000, 5935.000000)">
                <path d="M21,0 C9.40274922,0 0,9.40274922 0,21 C0,32.5972508 9.40274922,42 21,42 C32.5972508,42 42,32.5972508 42,21 C42,9.40015872 32.5972508,0 21,0 Z M15.75,31.1718696 L10.5,31.1718696 L10.5,12.7968264 L15.75,12.7968264 L15.75,31.1718696 Z M13.2877268,11.6707347 C11.9279717,11.6707347 10.8281304,10.5682166 10.8281304,9.20846149 C10.8281304,7.84870639 11.9306485,6.74618826 13.2877268,6.74618826 C14.6474819,6.74877876 15.75,7.8512969 15.75,9.20846149 C15.75,10.5682166 14.6474819,11.6707347 13.2877268,11.6707347 Z M34.1249568,31.1718696 L28.8749568,31.1718696 L28.8749568,19.8108727 C28.8749568,18.4799586 28.4943256,17.5481546 26.8589409,17.5481546 C24.1472886,17.5481546 23.6249568,19.8108727 23.6249568,19.8108727 L23.6249568,31.1718696 L18.3749568,31.1718696 L18.3749568,12.7968264 L23.6249568,12.7968264 L23.6249568,14.5529285 C24.3756846,13.9780959 26.2499136,12.7994169 28.8749568,12.7994169 C30.5759675,12.7994169 34.1249568,13.8179164 34.1249568,19.9708795 L34.1249568,31.1718696 Z" id="Shape"></path>
            </g>
        </g>
    </g>
</svg>