<?xml version="1.0" encoding="UTF-8" standalone="no"?>
<svg width="66px" height="30px" viewBox="0 0 66 30" version="1.1" xmlns="http://www.w3.org/2000/svg" xmlns:xlink="http://www.w3.org/1999/xlink">
    <!-- Generator: Sketch 49.1 (51147) - http://www.bohemiancoding.com/sketch -->
    <title>Page 1</title>
    <desc>Created with Sketch.</desc>
    <defs>
        <polygon id="path-1" points="0 0.139621622 23.040309 0.139621622 23.040309 29.9451568 0 29.9451568"></polygon>
    </defs>
    <g id="Page-1" stroke="none" stroke-width="1" fill="none" fill-rule="evenodd">
        <g id="Desktop-HD-Copy-3" transform="translate(-687.000000, -6117.000000)">
            <g id="Page-1" transform="translate(687.000000, 6117.000000)">
                <g id="Group-3">
                    <mask id="mask-2" fill="white">
                        <use xlink:href="#path-1"></use>
                    </mask>
                    <g id="Clip-2"></g>
                    <path d="M23.040309,10.4863459 L14.742436,23.2176973 L14.5739985,23.2176973 L6.36034437,10.6141297 L6.36034437,26.2224 C6.36034437,28.2784541 4.71142146,29.9451568 2.67765896,29.9451568 L-1.60416667e-05,29.9451568 L-1.60416667e-05,0.139589189 L4.75457354,0.139589189 C6.14602771,0.139589189 7.43898604,0.866075676 8.17353396,2.06072432 L14.742436,12.7431568 L23.0330902,0.139589189" id="Fill-1" fill="#FFFFFF" mask="url(#mask-2)"></path>
                </g>
                <path d="M44,30 L43.5848313,30 L30.4885053,10.9285586 L30.4885053,26.2736873 C30.4885053,28.3317283 28.8779345,30 26.8912698,30 L24.2,30 L24.2,10.4142524 L24.2,0 L27.7116809,0 C29.1973072,0 30.5943852,0.732531379 31.473881,1.97284019 L44,19.6369987 M24.2,10.4142524 L24.2,0" id="Fill-4" fill="#48B9E7"></path>
                <path d="M45.1,0 L48.4707687,0 C50.1430978,0 51.4987795,1.39830578 51.4987795,3.12305156 L51.4987795,24.0001959 L62.6532845,24.0001959 C64.5015817,24.0001959 66,25.5455629 66,27.4521357 L66,30 L45.1,30 L45.1,0 Z" id="Fill-6" fill="#FFFFFF"></path>
            </g>
        </g>
    </g>
</svg>