<?xml version="1.0" encoding="UTF-8" standalone="no"?>
<svg width="802px" height="164px" viewBox="0 0 802 164" version="1.1" xmlns="http://www.w3.org/2000/svg" xmlns:xlink="http://www.w3.org/1999/xlink">
    <!-- Generator: Sketch 49.1 (51147) - http://www.bohemiancoding.com/sketch -->
    <title>Group 11</title>
    <desc>Created with Sketch.</desc>
    <defs></defs>
    <g id="Page-1" stroke="none" stroke-width="1" fill="none" fill-rule="evenodd">
        <g id="Desktop-HD-Copy-3" transform="translate(-329.000000, -1278.000000)">
            <g id="Group-11" transform="translate(330.000000, 1279.000000)">
                <g id="Group-4" transform="translate(54.000000, 8.000000)">
                    <circle id="Oval-5" fill="#48B9E7" cx="9" cy="9" r="9"></circle>
                    <circle id="Oval-5-Copy" fill="#48B9E7" cx="37" cy="9" r="9"></circle>
                    <circle id="Oval-5-Copy-2" fill="#48B9E7" cx="65" cy="9" r="9"></circle>
                    <circle id="Oval-5-Copy-3" fill="#48B9E7" cx="93" cy="9" r="9"></circle>
                    <circle id="Oval-5-Copy-4" fill="#48B9E7" cx="121" cy="9" r="9"></circle>
                    <circle id="Oval-5-Copy-5" fill="#48B9E7" cx="149" cy="9" r="9"></circle>
                    <circle id="Oval-5-Copy-6" fill="#48B9E7" cx="177" cy="9" r="9"></circle>
                    <circle id="Oval-5-Copy-7" fill="#9B9B9B" cx="205" cy="9" r="9"></circle>
                    <circle id="Oval-5-Copy-8" fill="#9B9B9B" cx="233" cy="9" r="9"></circle>
                    <circle id="Oval-5-Copy-9" fill="#9B9B9B" cx="261" cy="9" r="9"></circle>
                </g>
                <g id="Group-4-Copy-2" transform="translate(54.000000, 72.000000)">
                    <circle id="Oval-5" fill="#48B9E7" cx="9" cy="9" r="9"></circle>
                    <circle id="Oval-5-Copy" fill="#48B9E7" cx="37" cy="9" r="9"></circle>
                    <circle id="Oval-5-Copy-2" fill="#48B9E7" cx="65" cy="9" r="9"></circle>
                    <circle id="Oval-5-Copy-3" fill="#48B9E7" cx="93" cy="9" r="9"></circle>
                    <circle id="Oval-5-Copy-4" fill="#48B9E7" cx="121" cy="9" r="9"></circle>
                    <circle id="Oval-5-Copy-5" fill="#48B9E7" cx="149" cy="9" r="9"></circle>
                    <circle id="Oval-5-Copy-6" fill="#48B9E7" cx="177" cy="9" r="9"></circle>
                    <circle id="Oval-5-Copy-7" fill="#48B9E7" cx="205" cy="9" r="9"></circle>
                    <circle id="Oval-5-Copy-8" fill="#48B9E7" cx="233" cy="9" r="9"></circle>
                    <circle id="Oval-5-Copy-9" fill="#9B9B9B" cx="261" cy="9" r="9"></circle>
                </g>
                <g id="Group-4-Copy-4" transform="translate(54.000000, 136.000000)">
                    <circle id="Oval-5" fill="#48B9E7" cx="9" cy="9" r="9"></circle>
                    <circle id="Oval-5-Copy" fill="#48B9E7" cx="37" cy="9" r="9"></circle>
                    <circle id="Oval-5-Copy-2" fill="#48B9E7" cx="65" cy="9" r="9"></circle>
                    <circle id="Oval-5-Copy-3" fill="#48B9E7" cx="93" cy="9" r="9"></circle>
                    <circle id="Oval-5-Copy-4" fill="#48B9E7" cx="121" cy="9" r="9"></circle>
                    <circle id="Oval-5-Copy-5" fill="#48B9E7" cx="149" cy="9" r="9"></circle>
                    <circle id="Oval-5-Copy-6" fill="#48B9E7" cx="177" cy="9" r="9"></circle>
                    <circle id="Oval-5-Copy-7" fill="#9B9B9B" cx="205" cy="9" r="9"></circle>
                    <circle id="Oval-5-Copy-8" fill="#9B9B9B" cx="233" cy="9" r="9"></circle>
                    <circle id="Oval-5-Copy-9" fill="#9B9B9B" cx="261" cy="9" r="9"></circle>
                </g>
                <g id="Group-4-Copy" transform="translate(488.000000, 8.000000)">
                    <circle id="Oval-5" fill="#48B9E7" cx="9" cy="9" r="9"></circle>
                    <circle id="Oval-5-Copy" fill="#48B9E7" cx="37" cy="9" r="9"></circle>
                    <circle id="Oval-5-Copy-2" fill="#48B9E7" cx="65" cy="9" r="9"></circle>
                    <circle id="Oval-5-Copy-3" fill="#48B9E7" cx="93" cy="9" r="9"></circle>
                    <circle id="Oval-5-Copy-4" fill="#48B9E7" cx="121" cy="9" r="9"></circle>
                    <circle id="Oval-5-Copy-5" fill="#48B9E7" cx="149" cy="9" r="9"></circle>
                    <circle id="Oval-5-Copy-6" fill="#48B9E7" cx="177" cy="9" r="9"></circle>
                    <circle id="Oval-5-Copy-7" fill="#48B9E7" cx="205" cy="9" r="9"></circle>
                    <circle id="Oval-5-Copy-8" fill="#9B9B9B" cx="233" cy="9" r="9"></circle>
                    <circle id="Oval-5-Copy-9" fill="#9B9B9B" cx="261" cy="9" r="9"></circle>
                </g>
                <g id="Group-4-Copy-3" transform="translate(488.000000, 72.000000)">
                    <circle id="Oval-5" fill="#48B9E7" cx="9" cy="9" r="9"></circle>
                    <circle id="Oval-5-Copy" fill="#48B9E7" cx="37" cy="9" r="9"></circle>
                    <circle id="Oval-5-Copy-2" fill="#48B9E7" cx="65" cy="9" r="9"></circle>
                    <circle id="Oval-5-Copy-3" fill="#48B9E7" cx="93" cy="9" r="9"></circle>
                    <circle id="Oval-5-Copy-4" fill="#48B9E7" cx="121" cy="9" r="9"></circle>
                    <circle id="Oval-5-Copy-5" fill="#48B9E7" cx="149" cy="9" r="9"></circle>
                    <circle id="Oval-5-Copy-6" fill="#9B9B9B" cx="177" cy="9" r="9"></circle>
                    <circle id="Oval-5-Copy-7" fill="#9B9B9B" cx="205" cy="9" r="9"></circle>
                    <circle id="Oval-5-Copy-8" fill="#9B9B9B" cx="233" cy="9" r="9"></circle>
                    <circle id="Oval-5-Copy-9" fill="#9B9B9B" cx="261" cy="9" r="9"></circle>
                </g>
                <g id="Group-2" stroke="#4A4A4A">
                    <g id="invision">
                        <g id="Group-5">
                            <circle id="Oval-6" cx="17" cy="17" r="17"></circle>
                        </g>
                    </g>
                </g>
                <g id="Group-2-Copy-2" transform="translate(0.000000, 64.000000)" stroke="#4A4A4A">
                    <g id="invision">
                        <g id="Group-5">
                            <circle id="Oval-6" cx="17" cy="17" r="17"></circle>
                        </g>
                    </g>
                </g>
                <g id="Group-2-Copy" transform="translate(434.000000, 0.000000)">
                    <g id="invision">
                        <g id="Group-5">
                            <path d="M12.0240556,12.3430197 C12.9051752,12.3430197 13.643307,11.6194599 13.643307,10.6711302 C13.643307,9.72345128 12.9051752,9 12.0240556,9 C11.142936,9 10.4050113,9.72345128 10.4050113,10.6711302 C10.4050113,11.6193514 11.142936,12.3430197 12.0240556,12.3430197 M8.66668968,21.2947665 C8.57153704,21.7189223 8.52380542,22.1769237 8.52380542,22.5505278 C8.52380542,24.0227062 9.28575126,25 10.9050027,25 C12.2479076,25 13.3366236,24.1644892 14.1205198,22.8153268 L13.6418575,24.8279512 L16.3085127,24.8279512 L17.8326114,18.4234167 C18.2136361,16.8018618 18.9517679,15.9601676 20.071028,15.9601676 C20.952044,15.9601676 21.4996635,16.5342423 21.4996635,17.4819212 C21.4996635,17.7564834 21.4758495,18.055562 21.3805933,18.3800248 L20.5947298,21.3238391 C20.4756596,21.7479948 20.4282386,22.1723675 20.4282386,22.5712474 C20.4282386,23.9687917 21.2137914,24.9909962 22.8568569,24.9909962 C24.2617819,24.9909962 25.3808349,24.0434258 26,21.7730536 L24.9523892,21.3493318 C24.4284802,22.870326 23.9760134,23.1453222 23.6188027,23.1453222 C23.2615921,23.1453222 23.0710797,22.8960357 23.0710797,22.3973545 C23.0710797,22.1728014 23.1189149,21.9236235 23.19015,21.6235686 L23.9523029,18.7555816 C24.1427117,18.0821395 24.2142574,17.4849586 24.2142574,16.9362682 C24.2142574,14.7907562 22.9759271,13.6710285 21.4758495,13.6710285 C20.071028,13.6710285 18.6421854,14.9987118 17.9279711,16.3960391 L18.451673,13.8879879 L14.3800928,13.8879879 L13.8085558,16.097069 L15.7135757,16.097069 L14.5404752,21.0177093 C13.6192859,23.1632213 11.9271428,23.1980433 11.7147837,23.1482511 C11.3660633,23.0658065 11.1430396,22.9270609 11.1430396,22.4523537 C11.1430396,22.1784424 11.1906677,21.7849864 11.3097379,21.3106046 L13.0957911,13.8879879 L8.57153704,13.8879879 L8,16.097069 L9.88099881,16.097069 L8.66679321,21.2947665" id="Shape" fill="#4A4A4A" fill-rule="nonzero"></path>
                            <circle id="Oval-6" stroke="#4A4A4A" cx="17" cy="17" r="17"></circle>
                        </g>
                    </g>
                </g>
                <g id="Group-2-Copy-3" transform="translate(434.000000, 64.000000)" stroke="#4A4A4A">
                    <g id="invision">
                        <g id="Group-5">
                            <circle id="Oval-6" cx="17" cy="17" r="17"></circle>
                        </g>
                    </g>
                </g>
                <text id="75%" font-family="AvenirNext-Medium, Avenir Next" font-size="16" font-weight="400" fill="#6A6A6A">
                    <tspan x="334" y="22">75%</tspan>
                </text>
                <text id="90%" font-family="AvenirNext-Medium, Avenir Next" font-size="16" font-weight="400" fill="#6A6A6A">
                    <tspan x="334" y="86">90%</tspan>
                </text>
                <text id="75%-copy-2" font-family="AvenirNext-Medium, Avenir Next" font-size="16" font-weight="400" fill="#6A6A6A">
                    <tspan x="334" y="150">75%</tspan>
                </text>
                <text id="80%" font-family="AvenirNext-Medium, Avenir Next" font-size="16" font-weight="400" fill="#6A6A6A">
                    <tspan x="768" y="22">80%</tspan>
                </text>
                <text id="65%" font-family="AvenirNext-Medium, Avenir Next" font-size="16" font-weight="400" fill="#6A6A6A">
                    <tspan x="768" y="86">65%</tspan>
                </text>
                <path d="M24.8269603,9.70208352 L20.9801249,8 L13.0042774,8 L9.18090305,9.73371883 L6,13.2875053 L17,28 L28,13.2877647 L24.8269603,9.70221318 L24.8269603,9.70208352 Z M27.0833441,13.3829299 L23.6046664,16.0011409 L21.1309458,12.2729713 L24.631022,10.6162663 L27.0833441,13.3830595 L27.0833441,13.3829299 Z M22.3275872,16.4002126 L11.4686112,16.4002126 L13.6298618,12.539019 L20.1025277,12.554707 L22.3275872,16.4002126 Z M13.7166161,8.57617757 L20.3425521,8.57617757 L23.6046664,10.0231042 L20.3286302,11.458362 L13.7028231,11.458362 L10.459658,10.024271 L13.716745,8.57604792 L13.7166161,8.57617757 Z M9.36163032,10.6162663 L12.643983,12.2710265 L10.2934972,15.9274981 L6.90917933,13.3829299 L9.36150141,10.6161366 L9.36163032,10.6162663 Z M8.17053192,15.3106095 L10.309095,17.1243242 L15.3973023,25.5460592 L8.17040301,15.3106095 L8.17053192,15.3106095 Z M11.7652256,17.598076 L22.0758323,17.598076 L17,27.0069883 L11.7650967,17.598076 L11.7652256,17.598076 Z M18.5954789,25.5460592 L23.6836863,17.1243242 L25.8222493,15.3106095 L18.5954789,25.5460592 Z" id="Shape" fill="#4A4A4A" fill-rule="nonzero"></path>
                <g id="Group-8" transform="translate(0.000000, 128.000000)">
                    <g id="Group-2-Copy-4" stroke="#4A4A4A">
                        <g id="invision">
                            <g id="Group-5">
                                <circle id="Oval-6" cx="17" cy="17" r="17"></circle>
                            </g>
                        </g>
                    </g>
                    <g id="photoshop-cc" transform="translate(5.000000, 6.000000)"></g>
                    <path d="M21.9825281,14.7388255 C20.9183207,14.7388255 20.55466,15.2749103 20.55466,15.7171897 C20.55466,16.1996715 20.7971005,16.5347447 22.2250229,17.2718951 C24.3399144,18.2905157 25,19.26888 25,20.7029784 C25,22.8473717 23.3565749,24 21.1338777,24 C19.961919,24 18.9515873,23.7587321 18.3723696,23.4237129 C18.2780871,23.3835106 18.2646182,23.3165067 18.2646182,23.2092465 L18.2646182,21.2390632 C18.2646182,21.1050555 18.3319628,21.0647992 18.4262995,21.1318571 C19.2749499,21.6813967 20.2448206,21.9226106 21.1338777,21.9226106 C22.1980851,21.9226106 22.6426137,21.4803311 22.6426137,20.8771884 C22.6426137,20.3947067 22.3327743,19.965828 20.9721964,19.26888 C19.0593386,18.3575196 18.2646182,17.4327584 18.2646182,15.8914538 C18.2646182,14.1624843 19.6251961,12.7284399 21.9825281,12.7284399 C23.1410179,12.7284399 23.9492615,12.9027039 24.3937901,13.1037155 C24.5015414,13.1707193 24.5284793,13.2779255 24.5284793,13.3717309 L24.5284793,15.2078524 C24.5284793,15.3150586 24.4611347,15.3821165 24.3263912,15.3418601 C23.7337046,14.9666926 22.8581163,14.7388255 21.9825281,14.7388255 Z M10.5530658,16.490814 C10.8629052,16.5176155 11.1054,16.5176155 11.644211,16.5176155 C13.2203459,16.5176155 14.7020897,15.9681299 14.7020897,13.8371374 C14.7020897,12.1350236 13.6378823,11.2772122 11.8462991,11.2772122 C11.3074881,11.2772122 10.7955606,11.3040137 10.5530658,11.3174145 L10.5530658,16.490814 Z M8.00005431,9.22786712 C8.00005431,9.13406173 8.18867346,9.06700385 8.29637048,9.06700385 C9.1585441,9.02680154 10.4382542,9 11.7718399,9 C15.5032187,9 16.9580246,11.0371871 16.9580246,13.6373147 C16.9580246,17.0415424 14.4794181,18.5024424 11.4350626,18.5024424 C10.9231895,18.5024424 10.7480936,18.4756409 10.3843242,18.4756409 L10.3843242,23.6222388 C10.3843242,23.7294449 10.3439174,23.783048 10.2226972,23.783048 L8.16168131,23.783048 C8.05392998,23.783048 8,23.7428457 8,23.6222388 L8,9.22786712 L8.00005431,9.22786712 Z" id="Shape" fill="#4A4A4A" fill-rule="nonzero"></path>
                </g>
                <g id="adobe-illustrator-cc" transform="translate(7.000000, 73.000000)" fill="#4A4A4A" fill-rule="nonzero">
                    <path d="M14.2281424,4.36725323 C14.2281424,4.26107293 14.2712219,4.20792927 14.4005185,4.20792927 L16.6553055,4.20792927 C16.7701265,4.20792927 16.8276238,4.24774688 16.8276238,4.36725323 L16.8276238,14.8407296 C16.8276238,14.9468563 16.7989041,15 16.6553055,15 L14.4292382,15 C14.2856397,15 14.2425022,14.9336373 14.2425022,14.827457 L14.2425022,4.36725323 L14.2281424,4.36725323 Z M14.0701839,1.35395928 C14.0701839,0.504409907 14.7164354,4.8316906e-13 15.5351209,4.8316906e-13 C16.411188,4.8316906e-13 17,0.544227517 17,1.35395928 C17,2.23005373 16.3824683,2.70791857 15.5064012,2.70791857 C14.6733558,2.70797208 14.0701839,2.23005373 14.0701839,1.35395928 Z M7.60737991,8.73450645 C7.20530392,7.26104082 6.25743758,4.04865883 5.89832536,2.49555798 L5.86960564,2.49555798 C5.56799075,4.04865883 4.80686045,6.67694218 4.20368857,8.73450645 L7.60737991,8.73450645 Z M3.61481864,10.8849785 L2.48021626,14.8672746 C2.45149654,14.9734014 2.40841697,14.9999465 2.26481841,14.9999465 L0.153629969,14.9999465 C0.0100314024,14.9999465 -0.0187462135,14.9601289 0.0100314024,14.8008584 L4.08875181,1.60613748 C4.16055109,1.36723182 4.20363066,1.15481772 4.23235038,0.504409907 C4.23235038,0.411502151 4.27542995,0.371684542 4.34722923,0.371684542 L7.36320444,0.371684542 C7.46372344,0.371684542 7.50680301,0.398229615 7.53558062,0.504409907 L12.1025941,14.8274035 C12.1313138,14.9335303 12.1025941,14.9999465 11.9877152,14.9999465 L9.60363159,14.9999465 C9.48875273,14.9999465 9.41689555,14.9734014 9.38823374,14.8805472 L8.21055179,10.8849785 L3.61481864,10.8849785 Z" id="Shape"></path>
                </g>
                <g id="trello" transform="translate(441.000000, 71.000000)" fill-rule="nonzero">
                    <rect id="Rectangle-path" fill="#4A4A4A" x="0" y="0" width="19" height="19" rx="1.56735009"></rect>
                    <rect id="Rectangle-path" fill="#FFFFFF" x="10.7068404" y="2.47557003" width="5.81758958" height="8.29315961" rx="0.752328045"></rect>
                    <rect id="Rectangle-path" fill="#FFFFFF" x="2.47557003" y="2.47557003" width="5.81758958" height="13.0586319" rx="0.752328045"></rect>
                </g>
            </g>
        </g>
    </g>
</svg>